<?xml version="1.0" encoding="utf-8"?>
<!-- Generator: Adobe Illustrator 25.4.1, SVG Export Plug-In . SVG Version: 6.00 Build 0)  -->
<svg version="1.1" id="Layer_1" xmlns="http://www.w3.org/2000/svg" xmlns:xlink="http://www.w3.org/1999/xlink" x="0px" y="0px"
	 width="144.2px" height="122px" viewBox="0 0 144.2 122" style="enable-background:new 0 0 144.2 122;" xml:space="preserve">
<style type="text/css">
	.st0{fill:#FFFFFF;}
</style>
<path class="st0" d="M79.6,2c-0.7-1-1.9-1.6-3.1-1.5h-5.1c-4.1,0.1-8.1,1.6-11.4,4.1c-2.2-2.7-5.5-4.2-9-4.1h-5.1
	c-2.4,0.1-4.5,1.6-5.3,3.9C40,5.6,40.2,7,40.9,8.1c0.7,1,1.9,1.6,3.1,1.5h5.1c1.1-0.1,2.2,0.4,2.9,1.2c0.7,1.1,0.7,2.5,0.2,3.8
	L37.3,56.7H31c-2.4,0.1-4.5,1.6-5.3,3.9c-0.5,1.2-0.3,2.6,0.4,3.7c0.7,1,1.9,1.6,3.1,1.5H34l-14.5,40.8c-1.2,3.4-5.1,6.3-8.5,6.3
	H5.9c-2.4,0.1-4.5,1.6-5.3,3.9c-0.5,1.2-0.3,2.6,0.4,3.7c0.7,1,1.9,1.6,3.1,1.5h5.1c4.2-0.1,8.2-1.6,11.5-4.1c2.2,2.7,5.5,4.2,9,4.1
	h5.1c2.4-0.1,4.5-1.6,5.3-3.9c0.5-1.2,0.3-2.6-0.4-3.7c-0.7-1-1.9-1.6-3.1-1.5h-5.1c-1.1,0.1-2.2-0.4-2.9-1.2
	c-0.7-1.2-0.7-2.5-0.2-3.8l14.9-42.1h6.3c2.4-0.1,4.5-1.6,5.3-3.9c0.5-1.2,0.3-2.6-0.4-3.7c-0.7-1-1.9-1.6-3.1-1.5h-4.8L61,15.9
	c1.2-3.4,5.1-6.3,8.5-6.3h5.1C77,9.5,79.1,7.9,80,5.7C80.4,4.5,80.3,3.1,79.6,2z"/>
<path class="st0" d="M87,10.8h19.9c1.3,0,2.5,0.8,2.9,2.1l34.2,96.7c0.6,1.6-0.3,3.4-1.9,4c-0.3,0.1-0.7,0.2-1,0.2h-16.7
	c-1.4,0-2.6-0.9-3-2.2l-5.4-16.8c-0.4-1.3-1.6-2.2-3-2.2H79.8c-1.4,0-2.6,0.8-3,2.1l-5.6,16.9c-0.4,1.3-1.6,2.1-3,2.1H52.4
	c-1.7,0-3.1-1.4-3.1-3.1c0-0.4,0.1-0.7,0.2-1.1L84,12.9C84.4,11.6,85.6,10.8,87,10.8z M87.7,74.8h17.8c1.7,0,3.1-1.3,3.1-3.1
	c0-0.3,0-0.7-0.2-1l-8.8-27.3c-0.5-1.6-2.3-2.5-3.9-2c-0.9,0.3-1.7,1-2,2l-9,27.3c-0.6,1.6,0.3,3.4,1.9,3.9
	C87,74.8,87.3,74.8,87.7,74.8L87.7,74.8z"/>
</svg>
