<svg id="Layer_1" data-name="Layer 1" xmlns="http://www.w3.org/2000/svg" xmlns:xlink="http://www.w3.org/1999/xlink" width="215.61" height="160" viewBox="0 0 215.61 160"><defs><style>.cls-1{fill:none;}.cls-2{clip-path:url(#clip-path);}.cls-3{fill:#4c6ef5;}.cls-4{fill:#fff;}</style><clipPath id="clip-path" transform="translate(-20.26 -48.36)"><rect class="cls-1" x="20.26" y="48.36" width="215.61" height="160"/></clipPath></defs><g class="cls-2"><path class="cls-3" d="M37.91,208.36H218.2a17.65,17.65,0,0,0,16.62-23.59L190.24,60.07a17.66,17.66,0,0,0-16.62-11.71H37.91A17.65,17.65,0,0,0,20.26,66v124.7a17.65,17.65,0,0,0,17.65,17.65" transform="translate(-20.26 -48.36)"/><path class="cls-4" d="M51.37,187.36H46.24a1.75,1.75,0,0,1-1.66-2.56,4,4,0,0,1,3.47-2.57h5.13c4.25,0,8.92-3.45,10.43-7.69L96.35,82.19c1.5-4.25-.72-7.7-5-7.7H86.25a1.75,1.75,0,0,1-1.65-2.56,4,4,0,0,1,3.47-2.57H93.2c7.07,0,10.79,5.76,8.28,12.83L68.74,174.54c-2.51,7.07-10.3,12.82-17.37,12.82" transform="translate(-20.26 -48.36)"/><path class="cls-4" d="M77,187.36H71.89c-7.07,0-10.79-5.75-8.28-12.82L96.35,82.19c2.51-7.07,10.3-12.83,17.37-12.83h5.13a1.76,1.76,0,0,1,1.66,2.57A4,4,0,0,1,117,74.49H111.9c-4.24,0-8.92,3.45-10.42,7.7L68.74,174.54c-1.51,4.24.72,7.69,5,7.69h5.13a1.75,1.75,0,0,1,1.65,2.57A4,4,0,0,1,77,187.36" transform="translate(-20.26 -48.36)"/><path class="cls-4" d="M91.9,130.93H71.37a1.75,1.75,0,0,1-1.65-2.57,4,4,0,0,1,3.47-2.56H93.72a1.75,1.75,0,0,1,1.65,2.56,4,4,0,0,1-3.47,2.57" transform="translate(-20.26 -48.36)"/><path class="cls-4" d="M139.49,77.7h20a3.13,3.13,0,0,1,2.94,2.08l34.35,97.08a3.12,3.12,0,0,1-2.94,4.16H177.13a3.13,3.13,0,0,1-3-2.17L168.74,162a3.13,3.13,0,0,0-3-2.17H132.25a3.12,3.12,0,0,0-3,2.14l-5.59,17a3.13,3.13,0,0,1-3,2.14h-15.9a3.12,3.12,0,0,1-2.94-4.17l34.65-97.08a3.12,3.12,0,0,1,2.94-2.07m.69,64.28h17.87a3.12,3.12,0,0,0,3-4.07l-8.81-27.46a3.12,3.12,0,0,0-5.94,0l-9.05,27.45a3.12,3.12,0,0,0,3,4.1" transform="translate(-20.26 -48.36)"/></g></svg>